# xmcd
#
# Track frame offsets:
#	225
#	10842
#	25732
#	35758
#	58269
#	68747
#	85010
#	98891
#	109769
#	122629
#	134534
#	147936
#	158177
#	164569
#	175988
#	184972
#
# Disc length: 2594
#
# Revision: 4
# Processed by: cddbd v1.5.1PL0 Copyright (c) Steve Scherf et al.
# Submitted via: audiograbber 1.81.03
# Normalized: r2:TDELIM( - ),TSWAP
#
DISCID=e10a1f10
DTITLE=Various Artist - Hits of the 50's and 60's
DYEAR=1900
DGENRE=Oldies
TTITLE0=Sam the Sham and The Pharao's - Wooly Bully
TTITLE1=The Temptations - My Girl
TTITLE2=Brenda Lee - I;m Sorry
TTITLE3=Mary Hopkins - Those Were the Days
TTITLE4=Del Shannon - Runaway
TTITLE5=Harold Melvin and The Blue Notes - If You Don't Know Me
TTITLE6=The New Seekers - Neverending Song of Love
TTITLE7=Johnny Tillotson - Poetry in Motion
TTITLE8=The Crew Cuts - Sh'Boom
TTITLE9=Pat Boone - Speedy Gonzales
TTITLE10=Ricky Valance - Tell Luara I Love Her
TTITLE11=Bill Haley and The Comets - Rock Around the Clock
TTITLE12=Neil Sedaka - Oh Carol
TTITLE13=Beach Boys - I Get Around
TTITLE14=Beach Boys - Surfin Safari
TTITLE15=Beach Boys - Monster Mash
EXTD=Copyright  I.M.C. Music Ltd 1999
EXTT0=
EXTT1=
EXTT2=
EXTT3=
EXTT4=
EXTT5=
EXTT6=
EXTT7=
EXTT8=
EXTT9=
EXTT10=
EXTT11=
EXTT12=
EXTT13=
EXTT14=
EXTT15=
PLAYORDER=
